<svg width="348" height="299" viewBox="0 0 348 299" fill="none" xmlns="http://www.w3.org/2000/svg">
<path d="M169.337 279.046L19.2618 177.944C14.4855 174.89 10.3878 169.861 15.0423 166.578L165.665 67.6186C167.927 66.0218 171.355 64.9804 173.652 66.4978L331.183 170.724C335.959 173.888 336.821 182.725 332.053 185.888L189.121 278.888C186.12 280.872 182.716 281.931 179.247 281.958C175.778 281.986 172.362 280.983 169.337 279.046Z" fill="#344468"/>
<path d="M217.665 260.312C218.065 260.054 197.368 228.505 219.971 195.191C242.573 161.877 241.929 138.541 233.482 124.775C228.223 116.089 223.705 106.85 219.988 97.1835L291.702 144.63C291.702 144.63 293.503 154.36 283.481 168.126C273.458 181.892 243.748 186.969 245.201 204.663C246.654 222.356 261 232.096 261 232.096L217.665 260.312Z" fill="#89C3EF"/>
<path opacity="0.51" d="M59.9255 205.337L65.5544 209.136C65.5544 209.136 114.927 171.676 170.102 176.06C225.278 180.444 297.601 208.303 297.601 208.303L302.151 205.327C302.151 205.327 244.287 156.909 172.617 158.277C100.946 159.646 59.9255 205.337 59.9255 205.337Z" fill="#2C3C59"/>
<path d="M228.149 102.549L223.633 99.5737C209.887 104.781 178.219 119.013 150.78 147.913C114.553 186.057 115.458 242.767 115.458 242.767L118.938 245.128L118.398 244.761C118.042 144.541 205.468 109.829 228.149 102.549Z" fill="#9FBDD3"/>
<path d="M213.829 126.481C207.965 128.534 202.11 130.626 196.429 133.205C186.596 137.807 177.471 144.168 169.398 152.049C152.328 168.304 139.6 189.241 129.926 211.943C127.231 218.263 124.869 224.761 122.853 231.401C121.478 235.944 119.782 240.446 118.999 245.157L142.175 260.768C141.462 260.292 146.125 176.982 200.196 150.323C228.34 136.438 262.836 137.232 284.177 139.632L230.915 104.394L213.829 126.481Z" fill="#8CA6BD"/>
<path d="M129.891 211.903C139.565 189.201 152.302 168.264 169.363 152.009C177.436 144.129 186.561 137.767 196.394 133.165C202.101 130.587 207.956 128.484 213.794 126.441L230.846 104.314L228.123 102.509C205.468 109.829 118.042 144.541 118.424 244.711L118.964 245.078C119.738 240.367 121.435 235.864 122.818 231.322C124.836 224.695 127.197 218.21 129.891 211.903Z" fill="#8CA6BD"/>
<path opacity="0.54" d="M180.882 168.869C180.882 168.869 147.665 207.698 148.831 265.241L142.141 260.728C142.141 260.728 133.893 197.829 174.47 164.268C215.047 130.706 275.451 134.008 275.451 134.008L291.694 144.601C291.694 144.601 218.37 137.261 180.882 168.869Z" fill="#2C3C59"/>
<path d="M59.9255 205.337C59.9255 205.337 122.644 159.527 190.773 170.01C258.903 180.493 302.133 205.337 302.133 205.337L332.027 185.888C332.027 185.888 245.244 134.544 160.08 143.083C82.415 150.869 39.4109 191.512 39.4109 191.512L59.9255 205.337Z" fill="#809DB2"/>
<path d="M62.7704 188.765C60.8912 189.809 59.0526 190.94 57.2546 192.157C57.1675 192.229 57.107 192.335 57.0848 192.455C57.0626 192.575 57.0803 192.701 57.1344 192.807C57.1885 192.913 57.2752 192.992 57.3778 193.03C57.4804 193.067 57.5915 193.06 57.6896 193.009C59.4876 191.786 61.3262 190.656 63.2054 189.618C63.7187 189.35 63.275 188.487 62.7704 188.765Z" fill="white"/>
<path d="M87.2261 176.08C85.3411 176.827 83.4851 177.663 81.6581 178.589C81.1448 178.847 81.5885 179.7 82.0931 179.442C83.8331 178.556 85.6195 177.753 87.4523 177.032C87.983 176.833 87.7568 175.871 87.2261 176.08Z" fill="white"/>
<path d="M116.998 165.19L109.402 167.798C109.345 167.816 109.292 167.846 109.245 167.887C109.198 167.929 109.159 167.98 109.129 168.038C109.1 168.097 109.081 168.161 109.073 168.228C109.065 168.295 109.069 168.363 109.085 168.428C109.1 168.493 109.127 168.554 109.163 168.608C109.199 168.661 109.244 168.706 109.295 168.74C109.347 168.773 109.403 168.795 109.462 168.804C109.521 168.812 109.58 168.808 109.637 168.79L117.232 166.182C117.29 166.164 117.343 166.134 117.39 166.093C117.437 166.052 117.476 166 117.506 165.942C117.535 165.883 117.554 165.819 117.562 165.752C117.569 165.685 117.565 165.617 117.55 165.552C117.535 165.487 117.508 165.426 117.472 165.372C117.436 165.319 117.391 165.274 117.34 165.241C117.288 165.207 117.232 165.185 117.173 165.176C117.114 165.168 117.055 165.172 116.998 165.19Z" fill="white"/>
<path d="M217.256 160.122L213.08 159.507C212.524 159.428 212.532 160.42 213.08 160.499L217.256 161.114C217.813 161.203 217.804 160.211 217.256 160.122Z" fill="white"/>
<path d="M247.724 167.134L243 166.142C242.452 166.023 242.217 166.975 242.765 167.134L247.489 168.126C248.037 168.205 248.272 167.253 247.724 167.134Z" fill="white"/>
<path d="M274.433 175.286L266.603 173.213C266.055 173.065 265.828 174.027 266.368 174.205L274.198 176.278C274.746 176.348 274.981 175.385 274.433 175.286Z" fill="white"/>
<path d="M301.333 186.821L294.608 184.133C294.077 183.925 293.851 184.877 294.373 185.125L301.098 187.813C301.629 187.991 301.89 187.039 301.333 186.821Z" fill="white"/>
<path d="M130.126 232.72C130.213 232.096 129.378 231.828 129.256 232.453C128.824 235.437 128.675 238.467 128.812 241.488C128.812 242.122 129.682 242.122 129.682 241.488C129.554 238.556 129.703 235.616 130.126 232.72Z" fill="white"/>
<path d="M134.85 205.04L133.449 211.377C133.434 211.442 133.43 211.51 133.437 211.577C133.445 211.644 133.464 211.709 133.494 211.767C133.523 211.826 133.562 211.877 133.609 211.918C133.656 211.959 133.71 211.989 133.767 212.007C133.824 212.025 133.883 212.029 133.942 212.021C134.001 212.012 134.057 211.99 134.109 211.956C134.16 211.923 134.205 211.878 134.241 211.825C134.277 211.771 134.304 211.71 134.319 211.645L135.72 205.308C135.751 205.176 135.735 205.036 135.676 204.918C135.616 204.8 135.518 204.713 135.402 204.678C135.287 204.642 135.164 204.66 135.06 204.728C134.957 204.796 134.881 204.908 134.85 205.04Z" fill="white"/>
<path d="M145.612 179.938L143.602 184.212C143.341 184.778 144.089 185.274 144.35 184.708L146.36 180.384C146.621 179.868 145.873 179.372 145.612 179.938Z" fill="white"/>
<path d="M188.172 135.754L180.803 139.8C180.299 140.078 180.742 140.931 181.238 140.653L188.616 136.607C189.112 136.329 188.677 135.476 188.172 135.754Z" fill="white"/>
<path d="M224.651 123.248L215.081 125.301C214.533 125.42 214.768 126.372 215.316 126.292L224.886 124.239C225.434 124.081 225.2 123.129 224.651 123.248Z" fill="white"/>
<path d="M144.55 158.535L139.896 159.527C139.348 159.636 139.583 160.598 140.131 160.519L144.785 159.527C145.333 159.418 145.099 158.426 144.55 158.535Z" fill="white"/>
<path d="M175.897 157.127H170.955C170.84 157.127 170.729 157.179 170.647 157.272C170.566 157.365 170.52 157.491 170.52 157.623C170.52 157.754 170.566 157.88 170.647 157.973C170.729 158.066 170.84 158.119 170.955 158.119H175.905C176.021 158.117 176.131 158.064 176.212 157.97C176.292 157.876 176.337 157.749 176.336 157.618C176.335 157.486 176.288 157.361 176.205 157.269C176.123 157.176 176.012 157.125 175.897 157.127Z" fill="white"/>
<path d="M191.47 104.374V62.4712L177.932 71.0898V110.93L178.211 111.009C182.491 108.42 187.163 106.853 191.47 104.374Z" fill="#68E1FD"/>
<path opacity="0.33" d="M191.47 104.374V62.4712L177.932 71.0898V110.93L178.211 111.009C182.491 108.42 187.163 106.853 191.47 104.374Z" fill="#1E4549"/>
<path d="M177.932 110.93V71.0898L164.186 62.4712V103.303C169.05 105.138 172.999 109.422 177.932 110.93Z" fill="#68E1FD"/>
<path d="M191.469 62.4712L177.932 52.9997L164.186 62.4712L177.932 71.0898L191.469 62.4712Z" fill="#CCCCCC"/>
<path d="M164.186 62.4712L177.932 71.0898L191.469 62.4712V64.5639L177.932 73.0535L164.186 64.4151V62.4712Z" fill="#1E4549"/>
<path d="M165.813 71.5857V68.2831L167.545 69.3641V72.5378L165.813 71.5857Z" fill="#E0E0E0"/>
<path d="M170.111 74.2337V70.9212L171.842 72.0022V75.1759L170.111 74.2337Z" fill="#E0E0E0"/>
<path d="M174.574 77.3479V74.0453L176.297 75.1263V78.3L174.574 77.3479Z" fill="#E0E0E0"/>
<path d="M165.813 83.4375V80.1348L167.545 81.206V84.3896L165.813 83.4375Z" fill="#E0E0E0"/>
<path d="M170.111 86.0855V82.773L171.842 83.854V87.0277L170.111 86.0855Z" fill="#E0E0E0"/>
<path d="M174.574 89.1997V85.8971L176.297 86.9781V90.1518L174.574 89.1997Z" fill="#E0E0E0"/>
<path d="M165.813 96.9951V93.6925L167.545 94.7735V97.9472L165.813 96.9951Z" fill="#E0E0E0"/>
<path d="M170.111 99.6432V96.3306L171.842 97.4117V100.585L170.111 99.6432Z" fill="#E0E0E0"/>
<path d="M174.574 102.767V99.4547L176.297 100.536V103.709L174.574 102.767Z" fill="#E0E0E0"/>
<path d="M190.678 71.6254V68.3128L188.955 69.3939V72.5676L190.678 71.6254Z" fill="#E0E0E0"/>
<path d="M186.389 74.2635V70.9609L184.657 72.0419V75.2156L186.389 74.2635Z" fill="#E0E0E0"/>
<path d="M181.926 77.3876V74.085L180.203 75.166V78.3397L181.926 77.3876Z" fill="#E0E0E0"/>
<path d="M190.678 83.4771V80.1646L188.955 81.2456V84.4193L190.678 83.4771Z" fill="#E0E0E0"/>
<path d="M186.389 86.1153V82.8126L184.657 83.8937V87.0674L186.389 86.1153Z" fill="#E0E0E0"/>
<path d="M181.926 89.2394V85.9368L180.203 87.0079V90.1915L181.926 89.2394Z" fill="#E0E0E0"/>
<path d="M190.678 97.0348V93.7322L188.955 94.8033V97.977L190.678 97.0348Z" fill="#E0E0E0"/>
<path d="M186.389 99.6729V96.3703L184.657 97.4513V100.625L186.389 99.6729Z" fill="#E0E0E0"/>
<path d="M181.926 102.797V99.4944L180.203 100.575V103.749L181.926 102.797Z" fill="#E0E0E0"/>
<path d="M164.186 87.0079L178.054 95.1802L191.469 87.1467V90.4196L177.932 98.4431L164.186 90.4196V87.0079Z" fill="#2E5B5A"/>
<path d="M164.186 100.585L178.054 108.758L191.469 100.734V103.997L177.932 112.021L164.186 103.997V100.585Z" fill="#2E5B5A"/>
<path d="M164.186 74.0453L178.054 82.2176L191.469 74.1841V77.457L177.932 85.4805L164.186 77.457V74.0453Z" fill="#2E5B5A"/>
<path d="M148.205 130.537V54.1006L133.58 63.4035V140.148L148.205 130.537Z" fill="#68E1FD"/>
<path opacity="0.33" d="M148.205 130.537V54.1006L133.58 63.4035V140.148L148.205 130.537Z" fill="#1E4549"/>
<path d="M133.58 63.4035L118.729 54.1006V130.21L133.58 140.148V63.4035Z" fill="#68E1FD"/>
<path d="M148.205 54.1006L133.58 43.8654L118.729 54.1006L133.58 63.4035L148.205 54.1006Z" fill="#9D9CA1"/>
<path d="M118.729 59.486L133.71 68.3128L148.205 59.6347V60.9736L133.71 69.6418L118.729 60.8149V59.486Z" fill="#CCCCCC"/>
<path d="M118.729 65.0201L133.71 73.8469L148.205 65.1788V66.5177L133.71 75.1858L118.729 66.359V65.0201Z" fill="#CCCCCC"/>
<path d="M118.729 71.06L133.771 79.9266L148.205 71.2882V72.6171L133.771 81.2556L118.729 72.389V71.06Z" fill="#CCCCCC"/>
<path d="M118.729 76.5347L133.884 85.4607L148.205 76.8917V78.2306L133.893 86.7996L118.729 77.8637V76.5347Z" fill="#CCCCCC"/>
<path d="M118.729 81.8605L133.649 90.6576L148.205 81.9399V83.2788L133.658 91.9866L118.729 83.1895V81.8605Z" fill="#CCCCCC"/>
<path d="M118.729 87.3352L133.771 96.1918L148.205 87.5534V88.8923L133.771 97.5307L118.729 88.6642V87.3352Z" fill="#CCCCCC"/>
<path d="M118.729 92.7404L133.589 101.498L148.205 92.7503V94.0892L133.597 102.837L118.729 94.0694V92.7404Z" fill="#CCCCCC"/>
<path d="M118.729 98.3935L133.71 107.22L148.205 98.5423V99.8812L133.71 108.559L118.729 99.7225V98.3935Z" fill="#CCCCCC"/>
<path d="M118.729 104.037L133.824 112.933L148.205 104.334V105.663L133.832 114.272L118.729 105.366V104.037Z" fill="#CCCCCC"/>
<path d="M118.729 109.511L133.945 118.477L148.205 109.938V111.277L133.954 119.806L118.729 110.84V109.511Z" fill="#CCCCCC"/>
<path d="M118.729 115.561L133.589 124.319L148.205 115.571V116.91L133.597 125.658L118.729 116.9V115.561Z" fill="#CCCCCC"/>
<path d="M118.729 121.036L133.71 129.863L148.205 121.185V122.524L133.71 131.192L118.729 122.365V121.036Z" fill="#CCCCCC"/>
<path d="M118.729 126.352L133.771 135.218L148.205 126.58V127.909L133.771 136.547L118.729 127.681V126.352Z" fill="#CCCCCC"/>
<path d="M193.149 248.519V172.083L178.524 181.386V258.13L193.149 248.519Z" fill="#68E1FD"/>
<path opacity="0.33" d="M193.149 248.519V172.083L178.524 181.386V258.13L193.149 248.519Z" fill="#1E4549"/>
<path d="M178.524 181.386L163.673 172.083V248.192L178.524 258.13V181.386Z" fill="#68E1FD"/>
<path d="M193.149 172.083L178.524 161.858L163.673 172.083L178.524 181.386L193.149 172.083Z" fill="#9D9CA1"/>
<path d="M163.673 177.468L178.654 186.295L193.149 177.617V178.956L178.654 187.624L163.673 178.797V177.468Z" fill="#CCCCCC"/>
<path d="M163.673 183.002L178.654 191.839L193.149 183.161V184.5L178.654 193.168L163.673 184.341V183.002Z" fill="#CCCCCC"/>
<path d="M163.673 189.042L178.715 197.909L193.149 189.27V190.599L178.715 199.238L163.673 190.381V189.042Z" fill="#CCCCCC"/>
<path d="M163.673 194.517L178.828 203.443L193.149 194.874V196.213L178.837 204.782L163.673 195.846V194.517Z" fill="#CCCCCC"/>
<path d="M163.673 199.843L178.594 208.64L193.149 199.922V201.261L178.594 209.969L163.673 201.182V199.843Z" fill="#CCCCCC"/>
<path d="M163.673 205.317L178.715 214.184L193.149 205.536V206.875L178.715 215.513L163.673 206.646V205.317Z" fill="#CCCCCC"/>
<path d="M163.673 210.723L178.533 219.48L193.149 210.733V212.071L178.541 220.819L163.673 212.052V210.723Z" fill="#CCCCCC"/>
<path d="M163.673 216.376L178.654 225.203L193.149 216.525V217.863L178.654 226.542L163.673 217.705V216.376Z" fill="#CCCCCC"/>
<path d="M163.673 222.019L178.768 230.915L193.149 222.317V223.646L178.776 232.254L163.673 223.358V222.019Z" fill="#CCCCCC"/>
<path d="M163.673 227.494L178.889 236.459L193.149 227.92V229.259L178.898 237.798L163.673 228.823V227.494Z" fill="#CCCCCC"/>
<path d="M163.673 233.544L178.533 242.301L193.149 233.563V234.892L178.541 243.64L163.673 234.882V233.544Z" fill="#CCCCCC"/>
<path d="M163.673 239.018L178.654 247.845L193.149 239.167V240.506L178.654 249.174L163.673 240.347V239.018Z" fill="#CCCCCC"/>
<path d="M163.673 244.334L178.715 253.201L193.149 244.562V245.891L178.715 254.53L163.673 245.673V244.334Z" fill="#CCCCCC"/>
<path d="M51.9563 104.592V72.2204L60.7433 53.8923L71.6357 83.8243L71.3051 117.545L51.9563 104.592Z" fill="#728FA5"/>
<path d="M51.678 60.1802L60.7434 53.8923L71.6358 83.8243L71.3139 161.411L62.5704 167.154" fill="#68E1FD"/>
<path d="M42.8909 110.88V78.5083L51.6779 60.1802L62.5703 90.1122L62.2484 123.833L42.8909 110.88Z" fill="#68E1FD"/>
<path d="M33.8342 132.114V99.7423L42.6125 81.4142L53.5136 111.346L53.183 145.067L33.8342 132.114Z" fill="#68E1FD"/>
<path d="M24.7688 165.964V133.592L33.5558 115.264L44.4482 145.196L44.1176 179.263L24.7688 165.964Z" fill="#68E1FD"/>
<path d="M42.8909 110.88V78.5083L51.6779 60.1802L62.5703 90.1122L62.2484 123.833L42.8909 110.88Z" fill="#2E5B5A"/>
<path d="M42.8909 125.826V93.4545L51.6779 75.1264L62.5703 105.058L62.2484 138.779L42.8909 125.826Z" fill="#728FA5"/>
<path d="M42.6125 81.4142L51.6779 75.1264L62.5703 105.058V167.154L53.2874 173.253" fill="#68E1FD"/>
<path d="M33.8342 132.114V99.7423L42.6125 81.4142L53.5136 111.346L53.183 145.067L33.8342 132.114Z" fill="#2E5B5A"/>
<path d="M33.8257 159.676V127.304L42.6127 108.976L53.5051 138.898L53.1832 172.628L33.8257 159.676Z" fill="#728FA5"/>
<path d="M33.5559 115.264L42.6126 108.976L53.505 138.898L53.2875 173.253L44.1177 179.263" fill="#68E1FD"/>
<path d="M24.7688 165.964V133.592L33.5558 115.264L44.4482 145.196L44.1176 179.263L24.7688 165.964Z" fill="#2E5B5A"/>
<path style="mix-blend-mode:multiply" opacity="0.68" d="M199.83 258.09L201.466 256.335L209.061 260.421C208.278 260.877 207.147 261.66 206.051 262.404C203.897 261.123 201.819 259.682 199.83 258.09Z" fill="url(#paint0_linear_5_22)"/>
<path d="M199.734 256.94C199.734 257.559 200.175 258.06 200.718 258.06C201.261 258.06 201.701 257.559 201.701 256.94V244.324C201.701 243.705 201.261 243.203 200.718 243.203C200.175 243.203 199.734 243.705 199.734 244.324V256.94Z" fill="#BC532A"/>
<path d="M195.872 246.238C196.324 243.997 198.343 234.119 201.91 237.015C203.737 238.502 204.259 240.833 204.989 243.104C205.655 244.982 206.04 246.973 206.129 248.995C206.19 253.111 202.519 253.607 199.708 253.597C198.09 253.597 195.785 252.496 195.402 250.493C195.294 249.213 195.412 247.921 195.75 246.695L195.872 246.238Z" fill="#2C9135"/>
<path d="M195.698 246.695L195.785 246.258C196.185 244.275 197.803 236.34 200.648 236.519C199.778 240.714 198.56 245.147 199.221 249.412C199.434 250.911 199.95 252.334 200.726 253.568C200.352 253.568 199.978 253.568 199.622 253.568C198.003 253.568 195.698 252.467 195.315 250.463C195.221 249.191 195.352 247.909 195.698 246.695Z" fill="#156819"/>
<path style="mix-blend-mode:multiply" opacity="0.68" d="M73.3323 208.332L75.1854 206.349L83.7984 210.99C82.9284 211.506 81.6321 212.389 80.388 213.222C77.9446 211.77 75.5876 210.137 73.3323 208.332Z" fill="url(#paint1_linear_5_22)"/>
<path d="M74.6459 207.489H75.3506V188.14H74.6459V207.489Z" fill="#404048"/>
<path d="M75.0549 190.074C76.2176 190.074 77.1603 188.999 77.1603 187.674C77.1603 186.348 76.2176 185.274 75.0549 185.274C73.8921 185.274 72.9495 186.348 72.9495 187.674C72.9495 188.999 73.8921 190.074 75.0549 190.074Z" fill="#68E1FD"/>
<path d="M76.0031 187.257C76.2434 187.257 76.4381 187.035 76.4381 186.761C76.4381 186.487 76.2434 186.265 76.0031 186.265C75.7629 186.265 75.5681 186.487 75.5681 186.761C75.5681 187.035 75.7629 187.257 76.0031 187.257Z" fill="white"/>
<path opacity="0.4" d="M73.454 186.117C73.2731 186.674 73.2817 187.288 73.4781 187.839C73.6745 188.39 74.0446 188.837 74.5154 189.092C74.9209 189.353 75.3944 189.441 75.8516 189.341C76.3088 189.241 76.7201 188.96 77.0123 188.546C76.9022 188.873 76.7307 189.169 76.5098 189.412C76.2889 189.655 76.0239 189.841 75.7335 189.955C75.4432 190.069 75.1344 190.11 74.8288 190.073C74.5233 190.037 74.2284 189.925 73.9649 189.745C73.7014 189.565 73.4756 189.322 73.3034 189.032C73.1312 188.742 73.0167 188.412 72.968 188.066C72.9193 187.721 72.9376 187.367 73.0216 187.03C73.1055 186.693 73.2531 186.381 73.454 186.117Z" fill="#3E3E4A"/>
<path d="M74.1413 202.56L73.3757 207.827C73.9661 208.125 74.6099 208.261 75.2549 208.223C76.6904 208.283 76.6121 207.727 76.6121 207.727L75.8552 202.56H74.1413Z" fill="#3E3E4A"/>
<path d="M74.994 203.046C75.4648 203.046 75.8466 202.829 75.8466 202.56C75.8466 202.292 75.4648 202.074 74.994 202.074C74.5231 202.074 74.1414 202.292 74.1414 202.56C74.1414 202.829 74.5231 203.046 74.994 203.046Z" fill="#55555F"/>
<path d="M75.0026 208.789C75.9011 208.789 76.6295 208.371 76.6295 207.856C76.6295 207.342 75.9011 206.924 75.0026 206.924C74.1041 206.924 73.3757 207.342 73.3757 207.856C73.3757 208.371 74.1041 208.789 75.0026 208.789Z" fill="#3E3E4A"/>
<path style="mix-blend-mode:multiply" opacity="0.68" d="M158.636 119.618L160.489 117.634L169.102 122.276C168.232 122.791 166.936 123.674 165.691 124.507C163.248 123.055 160.891 121.422 158.636 119.618Z" fill="url(#paint2_linear_5_22)"/>
<path d="M159.95 118.775H160.654V99.425H159.95V118.775Z" fill="#404048"/>
<path d="M160.35 101.359C161.513 101.359 162.455 100.284 162.455 98.9588C162.455 97.6333 161.513 96.5587 160.35 96.5587C159.187 96.5587 158.244 97.6333 158.244 98.9588C158.244 100.284 159.187 101.359 160.35 101.359Z" fill="#68E1FD"/>
<path d="M161.307 98.5423C161.547 98.5423 161.742 98.3203 161.742 98.0464C161.742 97.7725 161.547 97.5505 161.307 97.5505C161.066 97.5505 160.872 97.7725 160.872 98.0464C160.872 98.3203 161.066 98.5423 161.307 98.5423Z" fill="white"/>
<path opacity="0.4" d="M158.757 97.4017C158.577 97.9592 158.585 98.5737 158.782 99.1243C158.978 99.6749 159.348 100.122 159.819 100.377C160.224 100.638 160.698 100.726 161.155 100.626C161.612 100.526 162.024 100.245 162.316 99.8316C162.206 100.159 162.034 100.454 161.813 100.697C161.592 100.941 161.327 101.126 161.037 101.24C160.747 101.354 160.438 101.395 160.132 101.359C159.827 101.322 159.532 101.21 159.268 101.03C159.005 100.85 158.779 100.607 158.607 100.317C158.435 100.027 158.32 99.6974 158.271 99.3517C158.223 99.0059 158.241 98.6522 158.325 98.3153C158.409 97.9785 158.557 97.6667 158.757 97.4017Z" fill="#3E3E4A"/>
<path d="M159.445 113.845L158.679 119.112C159.27 119.41 159.913 119.546 160.558 119.509C161.994 119.568 161.916 119.013 161.916 119.013L161.159 113.845H159.445Z" fill="#3E3E4A"/>
<path d="M160.297 114.331C160.768 114.331 161.15 114.114 161.15 113.845C161.15 113.577 160.768 113.36 160.297 113.36C159.827 113.36 159.445 113.577 159.445 113.845C159.445 114.114 159.827 114.331 160.297 114.331Z" fill="#55555F"/>
<path d="M160.298 120.074C161.196 120.074 161.924 119.656 161.924 119.142C161.924 118.627 161.196 118.209 160.298 118.209C159.399 118.209 158.671 118.627 158.671 119.142C158.671 119.656 159.399 120.074 160.298 120.074Z" fill="#3E3E4A"/>
<path style="mix-blend-mode:multiply" opacity="0.68" d="M75.3682 137.48L77.2213 135.496L85.8343 140.138C84.9643 140.653 83.668 141.536 82.4239 142.369C79.9805 140.917 77.6235 139.284 75.3682 137.48Z" fill="url(#paint3_linear_5_22)"/>
<path d="M76.6818 136.647H77.3865V117.297H76.6818V136.647Z" fill="#404048"/>
<path d="M77.082 119.231C78.2447 119.231 79.1874 118.156 79.1874 116.831C79.1874 115.505 78.2447 114.431 77.082 114.431C75.9192 114.431 74.9766 115.505 74.9766 116.831C74.9766 118.156 75.9192 119.231 77.082 119.231Z" fill="#68E1FD"/>
<path d="M78.039 116.414C78.2792 116.414 78.474 116.192 78.474 115.918C78.474 115.644 78.2792 115.422 78.039 115.422C77.7988 115.422 77.604 115.644 77.604 115.918C77.604 116.192 77.7988 116.414 78.039 116.414Z" fill="white"/>
<path opacity="0.4" d="M75.4899 115.264C75.309 115.821 75.3176 116.436 75.514 116.986C75.7104 117.537 76.0804 117.984 76.5513 118.239C76.9568 118.5 77.4303 118.588 77.8875 118.488C78.3447 118.388 78.756 118.107 79.0482 117.694C78.9381 118.021 78.7666 118.316 78.5457 118.559C78.3247 118.803 78.0598 118.988 77.7694 119.102C77.479 119.216 77.1702 119.257 76.8647 119.221C76.5592 119.184 76.2643 119.072 76.0008 118.892C75.7372 118.712 75.5115 118.469 75.3393 118.179C75.167 117.889 75.0526 117.559 75.0039 117.214C74.9552 116.868 74.9735 116.514 75.0575 116.177C75.1414 115.84 75.289 115.529 75.4899 115.264Z" fill="#3E3E4A"/>
<path d="M76.1772 131.717L75.4116 136.984C76.002 137.282 76.6458 137.418 77.2908 137.38C78.7263 137.44 78.648 136.885 78.648 136.885L77.8911 131.717H76.1772Z" fill="#3E3E4A"/>
<path d="M77.0298 132.203C77.5007 132.203 77.8824 131.986 77.8824 131.717C77.8824 131.449 77.5007 131.231 77.0298 131.231C76.559 131.231 76.1772 131.449 76.1772 131.717C76.1772 131.986 76.559 132.203 77.0298 132.203Z" fill="#55555F"/>
<path d="M77.0297 137.946C77.9282 137.946 78.6566 137.528 78.6566 137.013C78.6566 136.499 77.9282 136.081 77.0297 136.081C76.1312 136.081 75.4028 136.499 75.4028 137.013C75.4028 137.528 76.1312 137.946 77.0297 137.946Z" fill="#3E3E4A"/>
<path style="mix-blend-mode:multiply" opacity="0.68" d="M296.583 164.03L298.436 162.046L307.049 166.688C306.179 167.203 304.883 168.086 303.639 168.919C301.195 167.467 298.838 165.834 296.583 164.03Z" fill="url(#paint4_linear_5_22)"/>
<path d="M297.897 163.197H298.601V143.847H297.897V163.197Z" fill="#404048"/>
<path d="M298.306 145.781C299.468 145.781 300.411 144.706 300.411 143.381C300.411 142.055 299.468 140.981 298.306 140.981C297.143 140.981 296.2 142.055 296.2 143.381C296.2 144.706 297.143 145.781 298.306 145.781Z" fill="#68E1FD"/>
<path d="M299.254 142.964C299.494 142.964 299.689 142.742 299.689 142.468C299.689 142.194 299.494 141.972 299.254 141.972C299.014 141.972 298.819 142.194 298.819 142.468C298.819 142.742 299.014 142.964 299.254 142.964Z" fill="white"/>
<path opacity="0.4" d="M296.67 141.814C296.489 142.371 296.498 142.986 296.694 143.536C296.891 144.087 297.261 144.534 297.731 144.789C298.137 145.05 298.61 145.138 299.068 145.038C299.525 144.938 299.936 144.657 300.228 144.244C300.118 144.57 299.947 144.866 299.726 145.109C299.505 145.353 299.24 145.538 298.95 145.652C298.659 145.766 298.35 145.807 298.045 145.77C297.739 145.734 297.444 145.622 297.181 145.442C296.917 145.262 296.692 145.019 296.519 144.729C296.347 144.439 296.233 144.109 296.184 143.764C296.135 143.418 296.154 143.064 296.238 142.727C296.322 142.39 296.469 142.079 296.67 141.814Z" fill="#3E3E4A"/>
<path d="M297.392 158.267L296.626 163.534C297.217 163.832 297.861 163.968 298.506 163.93C299.941 163.99 299.863 163.435 299.863 163.435L299.106 158.267H297.392Z" fill="#3E3E4A"/>
<path d="M298.245 158.753C298.716 158.753 299.097 158.536 299.097 158.267C299.097 157.999 298.716 157.781 298.245 157.781C297.774 157.781 297.392 157.999 297.392 158.267C297.392 158.536 297.774 158.753 298.245 158.753Z" fill="#55555F"/>
<path d="M298.245 164.496C299.143 164.496 299.871 164.078 299.871 163.563C299.871 163.049 299.143 162.631 298.245 162.631C297.346 162.631 296.618 163.049 296.618 163.563C296.618 164.078 297.346 164.496 298.245 164.496Z" fill="#3E3E4A"/>
<path style="mix-blend-mode:multiply" opacity="0.68" d="M203.797 199.516L205.433 197.76L213.028 201.846C212.245 202.302 211.114 203.086 210.018 203.83C207.864 202.549 205.786 201.107 203.797 199.516Z" fill="url(#paint5_linear_5_22)"/>
<path d="M203.711 198.365C203.711 198.984 204.151 199.486 204.694 199.486C205.237 199.486 205.677 198.984 205.677 198.365V185.75C205.677 185.131 205.237 184.629 204.694 184.629C204.151 184.629 203.711 185.131 203.711 185.75V198.365Z" fill="#BC532A"/>
<path d="M199.839 187.664C200.291 185.422 202.31 175.544 205.877 178.44C207.704 179.928 208.226 182.259 208.957 184.53C209.623 186.407 210.008 188.398 210.096 190.421C210.157 194.537 206.486 195.033 203.676 195.023C202.058 195.023 199.752 193.922 199.369 191.918C199.27 190.629 199.4 189.33 199.752 188.1L199.839 187.664Z" fill="#2C9135"/>
<path d="M199.665 188.1L199.752 187.664C200.152 185.68 201.77 177.746 204.615 177.924C203.745 182.12 202.527 186.553 203.188 190.818C203.401 192.317 203.917 193.739 204.694 194.973C204.319 194.973 203.945 194.973 203.589 194.973C201.97 194.973 199.665 193.872 199.282 191.869C199.189 190.596 199.319 189.315 199.665 188.1Z" fill="#156819"/>
<path style="mix-blend-mode:multiply" opacity="0.68" d="M256.441 210.177L258.077 208.422L265.672 212.508C264.889 212.964 263.758 213.748 262.662 214.491C260.507 213.21 258.429 211.769 256.441 210.177Z" fill="url(#paint6_linear_5_22)"/>
<path d="M256.354 209.027C256.354 209.646 256.794 210.147 257.337 210.147C257.88 210.147 258.32 209.646 258.32 209.027V196.411C258.32 195.792 257.88 195.291 257.337 195.291C256.794 195.291 256.354 195.792 256.354 196.411V209.027Z" fill="#BC532A"/>
<path d="M252.474 198.325C252.926 196.084 254.945 186.206 258.512 189.102C260.339 190.589 260.861 192.92 261.592 195.191C262.259 197.065 262.648 199.053 262.74 201.073C262.801 205.189 259.129 205.684 256.319 205.674C254.701 205.674 252.396 204.574 252.013 202.57C251.913 201.281 252.044 199.982 252.396 198.752L252.474 198.325Z" fill="#2C9135"/>
<path d="M252.3 198.762L252.387 198.325C252.787 196.342 254.405 188.408 257.25 188.586C256.38 192.781 255.162 197.215 255.823 201.479C256.036 202.978 256.552 204.401 257.329 205.635C256.954 205.635 256.58 205.635 256.224 205.635C254.605 205.635 252.3 204.534 251.917 202.531C251.824 201.258 251.954 199.976 252.3 198.762Z" fill="#156819"/>
<path style="mix-blend-mode:multiply" opacity="0.68" d="M206.094 98.5423L207.73 96.7868L215.325 100.903C214.542 101.359 213.411 102.142 212.315 102.886C210.16 101.596 208.082 100.144 206.094 98.5423Z" fill="url(#paint7_linear_5_22)"/>
<path d="M205.999 97.3918C205.999 98.0108 206.439 98.5125 206.982 98.5125C207.525 98.5125 207.965 98.0108 207.965 97.3918V84.7764C207.965 84.1574 207.525 83.6557 206.982 83.6557C206.439 83.6557 205.999 84.1574 205.999 84.7764V97.3918Z" fill="#BC532A"/>
<path d="M202.136 86.6905C202.588 84.4491 204.607 74.571 208.174 77.467C210.001 78.9546 210.523 81.2853 211.253 83.5565C211.919 85.4339 212.304 87.4252 212.393 89.4477C212.454 93.5636 208.783 94.0594 205.972 94.0495C204.354 94.0495 202.049 92.9487 201.666 90.9453C201.566 89.6561 201.697 88.3573 202.049 87.1269L202.136 86.6905Z" fill="#2C9135"/>
<path d="M201.962 87.1269L202.049 86.6905C202.449 84.7069 204.067 76.7727 206.912 76.9512C206.042 81.1464 204.824 85.5797 205.485 89.8444C205.698 91.3436 206.214 92.7661 206.99 93.9999C206.616 93.9999 206.242 93.9999 205.885 93.9999C204.267 93.9999 201.962 92.8991 201.579 90.8957C201.485 89.6229 201.616 88.3416 201.962 87.1269Z" fill="#156819"/>
<path style="mix-blend-mode:multiply" opacity="0.68" d="M147.595 141.377L149.231 139.622L156.826 143.708C156.043 144.164 154.912 144.948 153.816 145.692C151.662 144.41 149.584 142.969 147.595 141.377Z" fill="url(#paint8_linear_5_22)"/>
<path d="M147.5 140.227C147.5 140.846 147.94 141.348 148.483 141.348C149.026 141.348 149.466 140.846 149.466 140.227V127.611C149.466 126.992 149.026 126.491 148.483 126.491C147.94 126.491 147.5 126.992 147.5 127.611V140.227Z" fill="#BC532A"/>
<path d="M143.637 129.526C144.089 127.284 146.108 117.406 149.675 120.302C151.502 121.79 152.024 124.12 152.755 126.391C153.42 128.269 153.806 130.26 153.894 132.283C153.955 136.399 150.284 136.894 147.474 136.885C145.855 136.885 143.55 135.784 143.167 133.78C143.068 132.491 143.198 131.192 143.55 129.962L143.637 129.526Z" fill="#2C9135"/>
<path d="M143.463 129.962L143.55 129.526C143.95 127.542 145.568 119.608 148.413 119.786C147.543 123.981 146.325 128.415 146.987 132.679C147.2 134.179 147.715 135.601 148.492 136.835C148.118 136.835 147.743 136.835 147.387 136.835C145.769 136.835 143.463 135.734 143.08 133.731C142.987 132.458 143.117 131.177 143.463 129.962Z" fill="#156819"/>
<path style="mix-blend-mode:multiply" opacity="0.68" d="M116.737 190.996L118.372 189.241L125.967 193.327C125.184 193.783 124.053 194.567 122.957 195.31C120.803 194.029 118.725 192.588 116.737 190.996Z" fill="url(#paint9_linear_5_22)"/>
<path d="M116.658 189.836C116.658 190.455 117.098 190.956 117.641 190.956C118.184 190.956 118.625 190.455 118.625 189.836V177.22C118.625 176.601 118.184 176.1 117.641 176.1C117.098 176.1 116.658 176.601 116.658 177.22V189.836Z" fill="#BC532A"/>
<path d="M112.778 179.144C113.23 176.903 115.249 167.025 118.816 169.921C120.643 171.408 121.165 173.739 121.896 176.01C122.562 177.888 122.947 179.879 123.035 181.901C123.096 186.017 119.425 186.513 116.615 186.503C114.997 186.503 112.691 185.402 112.308 183.399C112.209 182.11 112.339 180.811 112.691 179.581L112.778 179.144Z" fill="#2C9135"/>
<path d="M112.613 179.581L112.7 179.144C113.1 177.161 114.718 169.227 117.563 169.405C116.693 173.6 115.475 178.034 116.136 182.298C116.349 183.797 116.864 185.22 117.641 186.454C117.267 186.454 116.893 186.454 116.536 186.454C114.918 186.454 112.613 185.353 112.23 183.35C112.136 182.077 112.266 180.795 112.613 179.581Z" fill="#156819"/>
<path d="M114.066 212.25V135.803L99.4409 145.116V221.86L114.066 212.25Z" fill="#68E1FD"/>
<path opacity="0.33" d="M114.066 212.25V135.803L99.4409 145.116V221.86L114.066 212.25Z" fill="#1E4549"/>
<path d="M99.441 145.116L84.5901 135.803V211.923L99.441 221.86V145.116Z" fill="#68E1FD"/>
<path d="M114.066 135.804L99.441 125.578L84.5901 135.804L99.441 145.116L114.066 135.804Z" fill="#9D9CA1"/>
<path d="M84.5901 141.199L99.5715 150.026L114.066 141.348V142.686L99.5715 151.355L84.5901 142.528V141.199Z" fill="#CCCCCC"/>
<path d="M84.5901 146.733L99.5715 155.56L114.066 146.892V148.231L99.5715 156.899L84.5901 148.072V146.733Z" fill="#CCCCCC"/>
<path d="M84.5901 152.773L99.6324 161.639L114.066 153.001V154.33L99.6324 162.968L84.5901 154.102V152.773Z" fill="#CCCCCC"/>
<path d="M84.5901 158.248L99.7455 167.174L114.066 158.605V159.943L99.7542 168.512L84.5901 159.576V158.248Z" fill="#CCCCCC"/>
<path d="M84.5901 163.573L99.5106 172.37L114.066 163.653V164.992L99.5193 173.699L84.5901 164.902V163.573Z" fill="#CCCCCC"/>
<path d="M84.5901 169.048L99.6324 177.905L114.066 169.266V170.605L99.6324 179.244L84.5901 170.377V169.048Z" fill="#CCCCCC"/>
<path d="M84.5901 174.453L99.4497 183.211L114.066 174.463V175.802L99.4584 184.55L84.5901 175.782V174.453Z" fill="#CCCCCC"/>
<path d="M84.5901 180.106L99.5715 188.933L114.066 180.255V181.594L99.5715 190.272L84.5901 181.435V180.106Z" fill="#CCCCCC"/>
<path d="M84.5901 185.75L99.6846 194.646L114.066 186.037V187.376L99.6933 195.985L84.5901 187.079V185.75Z" fill="#CCCCCC"/>
<path d="M84.5901 191.224L99.8064 200.19L114.066 191.651V192.99L99.8151 201.519L84.5901 192.553V191.224Z" fill="#CCCCCC"/>
<path d="M84.5901 197.274L99.4497 206.032L114.066 197.284V198.623L99.4584 207.37L84.5901 198.603V197.274Z" fill="#CCCCCC"/>
<path d="M84.5901 202.749L99.5715 211.576L114.066 202.897V204.236L99.5715 212.905L84.5901 204.078V202.749Z" fill="#CCCCCC"/>
<path d="M84.5901 208.065L99.6324 216.931L114.066 208.293V209.622L99.6324 218.26L84.5901 209.394V208.065Z" fill="#CCCCCC"/>
<path d="M71.4183 138.164L44.2395 154.429L24.7776 142.954V145.493L44.2482 156.968L71.4183 140.703V138.164Z" fill="#2E5B5A"/>
<path d="M44.1873 162.81L24.7776 151.374V153.904L44.196 165.349L71.4183 149.054V146.515L44.1873 162.81Z" fill="#2E5B5A"/>
<path d="M44.1873 171.736L24.7776 160.301V162.83L44.196 174.275L71.4183 157.98V155.441L44.1873 171.736Z" fill="#2E5B5A"/>
<path d="M71.4183 129.04L44.4657 145.166L24.7776 133.562V136.101L44.4744 147.705L71.4183 131.579V129.04Z" fill="#2E5B5A"/>
<path d="M53.392 123.049L52.9048 122.752V125.291L53.4007 125.588L71.575 114.708V112.159L53.392 123.049Z" fill="#2E5B5A"/>
<path d="M53.5312 111.892L52.9048 111.525V114.054L53.5399 114.431L71.575 103.63V101.091L53.5312 111.892Z" fill="#2E5B5A"/>
<path d="M62.6487 90.2808V92.8197L71.6445 87.4343V84.8954L62.6487 90.2808Z" fill="#2E5B5A"/>
<path d="M53.5312 132.808L52.9048 132.441V134.97L53.5399 135.347L71.575 124.557V122.008L53.5312 132.808Z" fill="#2E5B5A"/>
<path style="mix-blend-mode:multiply" opacity="0.68" d="M154.234 227.355L156.087 225.371L164.7 230.013C163.83 230.529 162.533 231.411 161.289 232.244C158.846 230.792 156.489 229.159 154.234 227.355Z" fill="url(#paint10_linear_5_22)"/>
<path d="M155.538 226.512H156.243V207.162H155.538V226.512Z" fill="#404048"/>
<path d="M155.947 209.096C157.11 209.096 158.053 208.022 158.053 206.696C158.053 205.37 157.11 204.296 155.947 204.296C154.785 204.296 153.842 205.37 153.842 206.696C153.842 208.022 154.785 209.096 155.947 209.096Z" fill="#68E1FD"/>
<path d="M156.896 206.279C157.136 206.279 157.331 206.057 157.331 205.784C157.331 205.51 157.136 205.288 156.896 205.288C156.655 205.288 156.461 205.51 156.461 205.784C156.461 206.057 156.655 206.279 156.896 206.279Z" fill="white"/>
<path opacity="0.4" d="M154.347 205.139C154.166 205.696 154.174 206.311 154.371 206.861C154.567 207.412 154.937 207.859 155.408 208.114C155.813 208.375 156.287 208.463 156.744 208.363C157.201 208.264 157.613 207.982 157.905 207.569C157.795 207.896 157.623 208.191 157.402 208.435C157.181 208.678 156.916 208.863 156.626 208.977C156.336 209.092 156.027 209.132 155.721 209.096C155.416 209.059 155.121 208.947 154.857 208.767C154.594 208.588 154.368 208.344 154.196 208.054C154.024 207.764 153.909 207.435 153.861 207.089C153.812 206.743 153.83 206.389 153.914 206.053C153.998 205.716 154.146 205.404 154.347 205.139Z" fill="#3E3E4A"/>
<path d="M155.034 221.583L154.268 226.849C154.859 227.148 155.502 227.283 156.148 227.246C157.583 227.305 157.505 226.75 157.505 226.75L156.748 221.583H155.034Z" fill="#3E3E4A"/>
<path d="M155.895 222.069C156.366 222.069 156.748 221.851 156.748 221.583C156.748 221.314 156.366 221.097 155.895 221.097C155.424 221.097 155.043 221.314 155.043 221.583C155.043 221.851 155.424 222.069 155.895 222.069Z" fill="#55555F"/>
<path d="M155.895 227.811C156.794 227.811 157.522 227.394 157.522 226.879C157.522 226.364 156.794 225.946 155.895 225.946C154.997 225.946 154.268 226.364 154.268 226.879C154.268 227.394 154.997 227.811 155.895 227.811Z" fill="#3E3E4A"/>
<path style="mix-blend-mode:multiply" opacity="0.68" d="M154.208 259.717L156.061 257.733L164.674 262.375C163.804 262.89 162.507 263.773 161.263 264.606C158.82 263.154 156.463 261.521 154.208 259.717Z" fill="url(#paint11_linear_5_22)"/>
<path d="M155.513 258.874H156.217V239.524H155.513V258.874Z" fill="#404048"/>
<path d="M155.921 241.458C157.084 241.458 158.027 240.383 158.027 239.058C158.027 237.732 157.084 236.658 155.921 236.658C154.759 236.658 153.816 237.732 153.816 239.058C153.816 240.383 154.759 241.458 155.921 241.458Z" fill="#68E1FD"/>
<path d="M156.87 238.641C157.11 238.641 157.305 238.419 157.305 238.145C157.305 237.872 157.11 237.65 156.87 237.65C156.629 237.65 156.435 237.872 156.435 238.145C156.435 238.419 156.629 238.641 156.87 238.641Z" fill="white"/>
<path opacity="0.4" d="M154.32 237.501C154.14 238.058 154.148 238.673 154.345 239.223C154.541 239.774 154.911 240.221 155.382 240.476C155.787 240.737 156.261 240.825 156.718 240.725C157.175 240.625 157.587 240.344 157.879 239.931C157.769 240.258 157.597 240.553 157.376 240.796C157.155 241.04 156.89 241.225 156.6 241.339C156.31 241.453 156.001 241.494 155.695 241.458C155.39 241.421 155.095 241.309 154.831 241.129C154.568 240.949 154.342 240.706 154.17 240.416C153.998 240.126 153.883 239.796 153.834 239.451C153.786 239.105 153.804 238.751 153.888 238.414C153.972 238.077 154.12 237.766 154.32 237.501Z" fill="#3E3E4A"/>
<path d="M155.008 253.944L154.242 259.211C154.833 259.509 155.476 259.645 156.121 259.608C157.557 259.667 157.479 259.112 157.479 259.112L156.722 253.944H155.008Z" fill="#3E3E4A"/>
<path d="M155.869 254.43C156.34 254.43 156.722 254.213 156.722 253.944C156.722 253.676 156.34 253.458 155.869 253.458C155.398 253.458 155.017 253.676 155.017 253.944C155.017 254.213 155.398 254.43 155.869 254.43Z" fill="#55555F"/>
<path d="M155.869 260.173C156.768 260.173 157.496 259.755 157.496 259.241C157.496 258.726 156.768 258.308 155.869 258.308C154.971 258.308 154.242 258.726 154.242 259.241C154.242 259.755 154.971 260.173 155.869 260.173Z" fill="#3E3E4A"/>
<path style="mix-blend-mode:multiply" opacity="0.68" d="M265.35 217.883L267.203 215.9L275.816 220.541C274.946 221.057 273.65 221.94 272.406 222.773C269.962 221.321 267.605 219.688 265.35 217.883Z" fill="url(#paint12_linear_5_22)"/>
<path d="M266.681 217.04H267.386V197.691H266.681V217.04Z" fill="#404048"/>
<path d="M267.081 199.625C268.244 199.625 269.187 198.55 269.187 197.224C269.187 195.899 268.244 194.824 267.081 194.824C265.918 194.824 264.976 195.899 264.976 197.224C264.976 198.55 265.918 199.625 267.081 199.625Z" fill="#68E1FD"/>
<path d="M268.038 196.808C268.279 196.808 268.473 196.586 268.473 196.312C268.473 196.038 268.279 195.816 268.038 195.816C267.798 195.816 267.603 196.038 267.603 196.312C267.603 196.586 267.798 196.808 268.038 196.808Z" fill="white"/>
<path opacity="0.4" d="M265.489 195.667C265.308 196.225 265.317 196.839 265.513 197.39C265.71 197.941 266.08 198.387 266.551 198.643C266.956 198.904 267.43 198.992 267.887 198.892C268.344 198.792 268.755 198.51 269.047 198.097C268.937 198.424 268.766 198.72 268.545 198.963C268.324 199.206 268.059 199.392 267.769 199.506C267.478 199.62 267.17 199.66 266.864 199.624C266.558 199.588 266.264 199.476 266 199.296C265.737 199.116 265.511 198.872 265.339 198.583C265.166 198.293 265.052 197.963 265.003 197.617C264.954 197.272 264.973 196.918 265.057 196.581C265.141 196.244 265.288 195.932 265.489 195.667Z" fill="#3E3E4A"/>
<path d="M266.176 212.111L265.411 217.377C266.001 217.676 266.645 217.812 267.29 217.774C268.726 217.834 268.647 217.278 268.647 217.278L267.89 212.111H266.176Z" fill="#3E3E4A"/>
<path d="M267.029 212.597C267.5 212.597 267.882 212.38 267.882 212.111C267.882 211.843 267.5 211.625 267.029 211.625C266.558 211.625 266.177 211.843 266.177 212.111C266.177 212.38 266.558 212.597 267.029 212.597Z" fill="#55555F"/>
<path d="M267.029 218.34C267.928 218.34 268.656 217.922 268.656 217.407C268.656 216.892 267.928 216.475 267.029 216.475C266.13 216.475 265.402 216.892 265.402 217.407C265.402 217.922 266.13 218.34 267.029 218.34Z" fill="#3E3E4A"/>
<path style="mix-blend-mode:multiply" opacity="0.68" d="M34.3738 183.221L36.2269 181.237L44.8399 185.879C43.9699 186.394 42.6736 187.277 41.4295 188.11C38.9861 186.658 36.6291 185.025 34.3738 183.221Z" fill="url(#paint13_linear_5_22)"/>
<path d="M35.6874 182.397H36.3921V163.048H35.6874V182.397Z" fill="#404048"/>
<path d="M36.0876 164.982C37.2504 164.982 38.193 163.907 38.193 162.582C38.193 161.256 37.2504 160.181 36.0876 160.181C34.9248 160.181 33.9822 161.256 33.9822 162.582C33.9822 163.907 34.9248 164.982 36.0876 164.982Z" fill="#68E1FD"/>
<path d="M37.0446 162.165C37.2849 162.165 37.4796 161.943 37.4796 161.669C37.4796 161.395 37.2849 161.173 37.0446 161.173C36.8044 161.173 36.6096 161.395 36.6096 161.669C36.6096 161.943 36.8044 162.165 37.0446 162.165Z" fill="white"/>
<path opacity="0.4" d="M34.4955 161.015C34.3146 161.572 34.3232 162.187 34.5196 162.737C34.716 163.288 35.0861 163.735 35.5569 163.99C35.9624 164.251 36.4359 164.339 36.8931 164.239C37.3503 164.139 37.7616 163.858 38.0538 163.444C37.9437 163.771 37.7722 164.067 37.5513 164.31C37.3304 164.554 37.0654 164.739 36.775 164.853C36.4847 164.967 36.1759 165.008 35.8703 164.971C35.5648 164.935 35.2699 164.823 35.0064 164.643C34.7429 164.463 34.5171 164.22 34.3449 163.93C34.1727 163.64 34.0582 163.31 34.0095 162.965C33.9608 162.619 33.9791 162.265 34.0631 161.928C34.147 161.591 34.2946 161.28 34.4955 161.015Z" fill="#3E3E4A"/>
<path d="M35.1828 177.468L34.4172 182.735C35.0076 183.033 35.6514 183.169 36.2964 183.131C37.7319 183.191 37.6536 182.635 37.6536 182.635L36.8967 177.468H35.1828Z" fill="#3E3E4A"/>
<path d="M36.0355 177.954C36.5063 177.954 36.8881 177.737 36.8881 177.468C36.8881 177.2 36.5063 176.982 36.0355 176.982C35.5646 176.982 35.1829 177.2 35.1829 177.468C35.1829 177.737 35.5646 177.954 36.0355 177.954Z" fill="#55555F"/>
<path d="M36.0353 183.697C36.9339 183.697 37.6622 183.279 37.6622 182.764C37.6622 182.249 36.9339 181.832 36.0353 181.832C35.1368 181.832 34.4084 182.249 34.4084 182.764C34.4084 183.279 35.1368 183.697 36.0353 183.697Z" fill="#3E3E4A"/>
<defs>
<linearGradient id="paint0_linear_5_22" x1="200.735" y1="255.234" x2="206.361" y2="259.921" gradientUnits="userSpaceOnUse">
<stop stop-color="#7F4E00"/>
<stop offset="1" stop-color="white"/>
</linearGradient>
<linearGradient id="paint1_linear_5_22" x1="74.3676" y1="205.099" x2="80.747" y2="210.421" gradientUnits="userSpaceOnUse">
<stop stop-color="#7F4E00"/>
<stop offset="1" stop-color="white"/>
</linearGradient>
<linearGradient id="paint2_linear_5_22" x1="159.662" y1="116.384" x2="166.04" y2="121.697" gradientUnits="userSpaceOnUse">
<stop stop-color="#7F4E00"/>
<stop offset="1" stop-color="white"/>
</linearGradient>
<linearGradient id="paint3_linear_5_22" x1="76.4035" y1="134.246" x2="82.7744" y2="139.569" gradientUnits="userSpaceOnUse">
<stop stop-color="#7F4E00"/>
<stop offset="1" stop-color="white"/>
</linearGradient>
<linearGradient id="paint4_linear_5_22" x1="297.618" y1="160.796" x2="303.998" y2="166.118" gradientUnits="userSpaceOnUse">
<stop stop-color="#7F4E00"/>
<stop offset="1" stop-color="white"/>
</linearGradient>
<linearGradient id="paint5_linear_5_22" x1="204.711" y1="196.669" x2="210.329" y2="201.357" gradientUnits="userSpaceOnUse">
<stop stop-color="#7F4E00"/>
<stop offset="1" stop-color="white"/>
</linearGradient>
<linearGradient id="paint6_linear_5_22" x1="257.346" y1="207.321" x2="262.972" y2="212.008" gradientUnits="userSpaceOnUse">
<stop stop-color="#7F4E00"/>
<stop offset="1" stop-color="white"/>
</linearGradient>
<linearGradient id="paint7_linear_5_22" x1="206.999" y1="95.686" x2="212.627" y2="100.382" gradientUnits="userSpaceOnUse">
<stop stop-color="#7F4E00"/>
<stop offset="1" stop-color="white"/>
</linearGradient>
<linearGradient id="paint8_linear_5_22" x1="148.5" y1="138.521" x2="154.128" y2="143.217" gradientUnits="userSpaceOnUse">
<stop stop-color="#7F4E00"/>
<stop offset="1" stop-color="white"/>
</linearGradient>
<linearGradient id="paint9_linear_5_22" x1="117.65" y1="188.14" x2="123.278" y2="192.836" gradientUnits="userSpaceOnUse">
<stop stop-color="#7F4E00"/>
<stop offset="1" stop-color="white"/>
</linearGradient>
<linearGradient id="paint10_linear_5_22" x1="155.26" y1="224.122" x2="161.638" y2="229.434" gradientUnits="userSpaceOnUse">
<stop stop-color="#7F4E00"/>
<stop offset="1" stop-color="white"/>
</linearGradient>
<linearGradient id="paint11_linear_5_22" x1="155.234" y1="256.483" x2="161.612" y2="261.796" gradientUnits="userSpaceOnUse">
<stop stop-color="#7F4E00"/>
<stop offset="1" stop-color="white"/>
</linearGradient>
<linearGradient id="paint12_linear_5_22" x1="266.403" y1="214.65" x2="272.772" y2="219.963" gradientUnits="userSpaceOnUse">
<stop stop-color="#7F4E00"/>
<stop offset="1" stop-color="white"/>
</linearGradient>
<linearGradient id="paint13_linear_5_22" x1="35.4091" y1="179.997" x2="41.78" y2="185.32" gradientUnits="userSpaceOnUse">
<stop stop-color="#7F4E00"/>
<stop offset="1" stop-color="white"/>
</linearGradient>
</defs>
</svg>
