<svg width="40" height="40" viewBox="0 0 40 40" fill="none" xmlns="http://www.w3.org/2000/svg">
<path d="M35.9049 10.83C36.6666 13.8 36.6666 20 36.6666 20C36.6666 20 36.6666 26.2 35.9049 29.17C35.4816 30.8117 34.2432 32.1033 32.6749 32.54C29.8266 33.3333 19.9999 33.3333 19.9999 33.3333C19.9999 33.3333 10.1783 33.3333 7.32492 32.54C5.74992 32.0967 4.51325 30.8067 4.09492 29.17C3.33325 26.2 3.33325 20 3.33325 20C3.33325 20 3.33325 13.8 4.09492 10.83C4.51825 9.18832 5.75659 7.89666 7.32492 7.45999C10.1783 6.66666 19.9999 6.66666 19.9999 6.66666C19.9999 6.66666 29.8266 6.66666 32.6749 7.45999C34.2499 7.90332 35.4866 9.19332 35.9049 10.83ZM16.6666 25.8333L26.6666 20L16.6666 14.1667V25.8333Z" fill="white"/>
</svg>
