<svg width="40" height="40" viewBox="0 0 40 40" fill="none" xmlns="http://www.w3.org/2000/svg">
<path d="M3.33994 36.6667L5.59327 28.3867C4.1085 25.8414 3.32843 22.9467 3.33327 20C3.33327 10.795 10.7949 3.33334 19.9999 3.33334C29.2049 3.33334 36.6666 10.795 36.6666 20C36.6666 29.205 29.2049 36.6667 19.9999 36.6667C17.0546 36.6714 14.161 35.892 11.6166 34.4083L3.33994 36.6667ZM13.9849 12.18C13.7697 12.1934 13.5594 12.2501 13.3666 12.3467C13.1858 12.4491 13.0208 12.5771 12.8766 12.7267C12.6766 12.915 12.5633 13.0783 12.4416 13.2367C11.8256 14.0383 11.4943 15.0224 11.4999 16.0333C11.5033 16.85 11.7166 17.645 12.0499 18.3883C12.7316 19.8917 13.8533 21.4833 15.3349 22.9583C15.6916 23.3133 16.0399 23.67 16.4149 24.0017C18.2539 25.6208 20.4454 26.7884 22.8149 27.4117L23.7633 27.5567C24.0716 27.5733 24.3799 27.55 24.6899 27.535C25.1753 27.51 25.6493 27.3785 26.0783 27.15C26.3549 27.0033 26.4849 26.93 26.7166 26.7833C26.7166 26.7833 26.7883 26.7367 26.9249 26.6333C27.1499 26.4667 27.2883 26.3483 27.4749 26.1533C27.6133 26.01 27.7333 25.8417 27.8249 25.65C27.9549 25.3783 28.0849 24.86 28.1383 24.4283C28.1783 24.0983 28.1666 23.9183 28.1616 23.8067C28.1549 23.6283 28.0066 23.4433 27.8449 23.365L26.8749 22.93C26.8749 22.93 25.4249 22.2983 24.5399 21.895C24.4466 21.8543 24.3466 21.8312 24.2449 21.8267C24.1309 21.815 24.0157 21.8278 23.907 21.8643C23.7984 21.9008 23.6988 21.9602 23.6149 22.0383V22.035C23.6066 22.035 23.4949 22.13 22.2899 23.59C22.2208 23.6829 22.1255 23.7532 22.0163 23.7918C21.907 23.8304 21.7888 23.8355 21.6766 23.8067C21.568 23.7776 21.4616 23.7409 21.3583 23.6967C21.1516 23.61 21.0799 23.5767 20.9383 23.515L20.9299 23.5117C19.9765 23.0954 19.0936 22.5331 18.3133 21.845C18.1033 21.6617 17.9083 21.4617 17.7083 21.2683C17.0526 20.6404 16.4811 19.93 16.0083 19.155L15.9099 18.9967C15.8393 18.8903 15.7822 18.7755 15.7399 18.655C15.6766 18.41 15.8416 18.2133 15.8416 18.2133C15.8416 18.2133 16.2466 17.77 16.4349 17.53C16.5918 17.3305 16.7381 17.123 16.8733 16.9083C17.0699 16.5917 17.1316 16.2667 17.0283 16.015C16.5616 14.875 16.0783 13.74 15.5816 12.6133C15.4833 12.39 15.1916 12.23 14.9266 12.1983C14.8366 12.1883 14.7466 12.1783 14.6566 12.1717C14.4328 12.1606 14.2085 12.1628 13.9849 12.1783V12.18Z" fill="white"/>
</svg>
