<svg width="50" height="50" viewBox="0 0 50 50" fill="none" xmlns="http://www.w3.org/2000/svg">
<g clip-path="url(#clip0_79_11)">
<path d="M24.8095 0C20.4579 0.11413 16.334 1.13611 12.8993 3.0698C14.0438 2.61437 15.8783 2.27369 17.4813 2.27369C17.594 2.27043 17.7052 2.26945 17.8168 2.26945C22.1477 2.26945 26.0079 4.41055 28.1285 7.84859C30.4187 11.4888 30.6397 15.925 30.6397 19.5652C30.6397 28.2098 35.343 30.4348 39.9234 30.4348C44.8474 30.4348 49.2413 25.2515 49.2413 20.3613C49.1264 9.78198 36.0318 0 24.8095 0ZM15.1283 4.34783C13.278 4.34783 11.4099 4.76817 9.84958 5.58339C3.66508 8.841 0.0858983 17.2315 0.00164372 25C-0.0432191 29.1707 0.829537 33.3237 2.7094 36.74C4.7709 40.6074 7.63463 43.677 10.9545 45.839C10.1524 45.0423 9.00708 43.5633 8.20612 42.1981C6.03082 38.3307 6.25951 33.8967 8.20612 30.2565C10.2676 26.3891 14.2004 23.7832 17.4065 22.0767C25.078 18.0952 24.8503 12.5222 23.0186 8.54068C21.6968 5.69611 18.4416 4.34783 15.1283 4.34783ZM50 25.9341C49.6564 27.0711 49.0838 28.7766 48.2817 30.1418C46.1064 33.8951 42.2138 36.3982 38.0919 36.3982C33.6264 36.3982 29.4149 34.4341 26.3226 32.5004C24.0095 31.0537 21.7303 30.4348 19.6612 30.4348C16.1991 30.4348 13.3282 32.1692 11.8948 34.6616C9.48973 38.7562 11.8965 45.1254 16.2482 47.6287C18.6084 49.0047 21.9071 50 24.7903 50C33.1009 50 42.4864 44.829 46.5656 37.6507C48.7409 34.0105 49.8862 29.9156 50 25.9341Z" fill="white"/>
</g>
<defs>
<clipPath id="clip0_79_11">
<rect width="50" height="50" fill="white"/>
</clipPath>
</defs>
</svg>
